<svg width="50" height="49" viewBox="0 0 50 49" fill="none" xmlns="http://www.w3.org/2000/svg">
<path d="M44.9444 10.8888V10.3888H44.4444H40.7778V8.66663H44.7873C45.0464 8.67136 45.3018 8.72583 45.5389 8.82669C45.7772 8.92806 45.9922 9.07416 46.1717 9.25617C46.3513 9.43817 46.492 9.65249 46.5862 9.88664C46.6805 10.1208 46.7266 10.3705 46.7223 10.6216L46.7222 10.6216V10.6302V41.0919H46.7221L46.7223 41.1006C46.7266 41.3517 46.6805 41.6014 46.5862 41.8355C46.492 42.0697 46.3513 42.284 46.1717 42.466C45.9922 42.648 45.7772 42.7941 45.5389 42.8954C45.3018 42.9963 45.0465 43.0508 44.7874 43.0555H5.21255C4.95351 43.0508 4.69817 42.9963 4.46106 42.8954C4.22274 42.7941 4.0078 42.648 3.82822 42.466C3.64867 42.284 3.508 42.0697 3.41373 41.8355C3.31948 41.6014 3.27333 41.3517 3.27769 41.1006H3.27776V41.0919V10.6302H3.27784L3.27769 10.6216C3.27333 10.3705 3.31948 10.1208 3.41373 9.88664C3.508 9.65249 3.64867 9.43817 3.82822 9.25617C4.0078 9.07416 4.22274 8.92806 4.46105 8.82669C4.6982 8.72583 4.95357 8.67136 5.21264 8.66663H9.22221V10.3888H5.55554H5.05554V10.8888V40.8333V41.3333H5.55554H44.4444H44.9444V40.8333V10.8888Z" stroke="white" stroke-opacity="0.35"/>
<path d="M11.6111 19.5555H13.3889V21.2778H11.6111V19.5555Z" stroke="white" stroke-opacity="0.35"/>
<path d="M19.9445 19.5555H21.7222V21.2778H19.9445V19.5555Z" stroke="white" stroke-opacity="0.35"/>
<path d="M28.2778 19.5555H30.0555V21.2778H28.2778V19.5555Z" stroke="white" stroke-opacity="0.35"/>
<path d="M36.6111 19.5555H38.3889V21.2778H36.6111V19.5555Z" stroke="white" stroke-opacity="0.35"/>
<path d="M11.6111 26.3611H13.3889V28.0833H11.6111V26.3611Z" stroke="white" stroke-opacity="0.35"/>
<path d="M19.9445 26.3611H21.7222V28.0833H19.9445V26.3611Z" stroke="white" stroke-opacity="0.35"/>
<path d="M28.2778 26.3611H30.0555V28.0833H28.2778V26.3611Z" stroke="white" stroke-opacity="0.35"/>
<path d="M36.6111 26.3611H38.3889V28.0833H36.6111V26.3611Z" stroke="white" stroke-opacity="0.35"/>
<path d="M11.6111 33.1666H13.3889V34.8888H11.6111V33.1666Z" stroke="white" stroke-opacity="0.35"/>
<path d="M19.9445 33.1666H21.7222V34.8888H19.9445V33.1666Z" stroke="white" stroke-opacity="0.35"/>
<path d="M28.2778 33.1666H30.0555V34.8888H28.2778V33.1666Z" stroke="white" stroke-opacity="0.35"/>
<path d="M36.6111 33.1666H38.3889V34.8888H36.6111V33.1666Z" stroke="white" stroke-opacity="0.35"/>
<path d="M14.521 3.47793L14.8605 3.13151L14.521 3.47793C14.6866 3.64024 14.7778 3.8582 14.7778 4.08328V12.2499C14.7778 12.475 14.6866 12.693 14.521 12.8553C14.3551 13.0179 14.1279 13.1111 13.8889 13.1111C13.6499 13.1111 13.4227 13.0179 13.2568 12.8553C13.0911 12.693 13 12.475 13 12.2499V4.08328C13 3.8582 13.0911 3.64024 13.2568 3.47793C13.4227 3.31529 13.6499 3.22217 13.8889 3.22217C14.1279 3.22217 14.3551 3.31529 14.521 3.47793Z" stroke="white" stroke-opacity="0.35"/>
<path d="M36.7432 12.8553C36.5773 13.0179 36.3501 13.1111 36.1111 13.1111C35.8721 13.1111 35.6449 13.0179 35.479 12.8553C35.3134 12.693 35.2222 12.475 35.2222 12.2499V4.08328C35.2222 3.85819 35.3134 3.64024 35.479 3.47793C35.6449 3.3153 35.8721 3.22217 36.1111 3.22217C36.3501 3.22217 36.5773 3.3153 36.7432 3.47793C36.9089 3.64024 37 3.85819 37 4.08328V12.2499C37 12.475 36.9089 12.693 36.7432 12.8553Z" stroke="white" stroke-opacity="0.35"/>
<path d="M18.5555 8.66663H31.4444V10.3888H18.5555V8.66663Z" stroke="white" stroke-opacity="0.35"/>
</svg>
