<svg width="109" height="109" viewBox="0 0 109 109" fill="none" xmlns="http://www.w3.org/2000/svg">
<path fill-rule="evenodd" clip-rule="evenodd" d="M54.5 47.6875H78.3438C79.2471 47.6875 80.1135 48.0464 80.7523 48.6852C81.3911 49.324 81.75 50.1904 81.75 51.0938C81.75 51.9971 81.3911 52.8635 80.7523 53.5023C80.1135 54.1411 79.2471 54.5 78.3438 54.5H54.5V78.3438C54.5 79.2471 54.1411 80.1135 53.5023 80.7523C52.8635 81.3911 51.9971 81.75 51.0938 81.75C50.1904 81.75 49.324 81.3911 48.6852 80.7523C48.0464 80.1135 47.6875 79.2471 47.6875 78.3438V54.5H23.8438C22.9404 54.5 22.074 54.1411 21.4352 53.5023C20.7964 52.8635 20.4375 51.9971 20.4375 51.0938C20.4375 50.1904 20.7964 49.324 21.4352 48.6852C22.074 48.0464 22.9404 47.6875 23.8438 47.6875H47.6875V23.8438C47.6875 22.9404 48.0464 22.074 48.6852 21.4352C49.324 20.7964 50.1904 20.4375 51.0938 20.4375C51.9971 20.4375 52.8635 20.7964 53.5023 21.4352C54.1411 22.074 54.5 22.9404 54.5 23.8438V47.6875ZM51.0938 0C79.2702 0 102.188 22.9172 102.188 51.0938C102.188 79.2702 79.2702 102.188 51.0938 102.188C22.9172 102.188 0 79.2702 0 51.0938C0 22.9172 22.9172 0 51.0938 0ZM51.0938 6.00863C39.1364 6.00863 27.6689 10.7587 19.2138 19.2138C10.7587 27.6689 6.00863 39.1364 6.00863 51.0938C6.00863 63.0511 10.7587 74.5186 19.2138 82.9737C27.6689 91.4289 39.1364 96.1789 51.0938 96.1789C63.0511 96.1789 74.5186 91.4289 82.9737 82.9737C91.4289 74.5186 96.1789 63.0511 96.1789 51.0938C96.1789 39.1364 91.4289 27.6689 82.9737 19.2138C74.5186 10.7587 63.0511 6.00863 51.0938 6.00863Z" fill="white"/>
</svg>
