<svg width="50" height="50" viewBox="0 0 50 50" fill="none" xmlns="http://www.w3.org/2000/svg">
<g clip-path="url(#clip0_5_89)">
<path d="M25.8504 15.199C29.3494 15.4153 31.4931 17.253 31.9511 19.5625H29.6229C29.1524 18.1034 27.8089 17.1215 25.9376 16.9094L25.3812 16.8464V17.4063V23.3969V23.7923L25.766 23.8834L27.2442 24.2334L27.2446 24.2335C28.9535 24.6367 30.2176 25.2128 31.0516 26.0108C31.8672 26.7914 32.3125 27.8236 32.3125 29.2469C32.3125 30.8076 31.7297 32.1014 30.6566 33.0486C29.5744 34.0039 27.9565 34.6379 25.8463 34.7856L25.3812 34.8182V35.2844V37H24.5063V35.3V34.8315L24.0387 34.8011C22.0099 34.669 20.4754 34.0489 19.4278 33.1469C18.5242 32.3689 17.9609 31.3631 17.7555 30.2219H20.1372C20.6161 31.7347 22.0339 32.7418 23.9315 33.0288L24.5063 33.1157V32.5344V26.1781V25.7865L24.1261 25.6927L22.8855 25.3864L22.8855 25.3864L22.8793 25.385C21.3667 25.032 20.2038 24.4366 19.4235 23.6352C18.6526 22.8435 18.225 21.8209 18.225 20.5375C18.225 17.6981 20.4866 15.5939 24.055 15.2445L24.5063 15.2003V14.7469V13H25.3812V14.7V15.1701L25.8504 15.199ZM23.8775 23.4402L23.9827 23.4646L24.0887 23.4434L24.1043 23.4403L24.5063 23.3599V22.95V17.45V16.8516L23.9173 16.958C21.9722 17.3095 20.6469 18.5618 20.6469 20.3406C20.6469 21.1415 20.9591 21.821 21.5415 22.349C22.1086 22.863 22.9103 23.2156 23.8775 23.4402ZM26.2659 26.1941L26.2651 26.194L25.9933 26.1315L25.3812 25.9908V26.6187V32.5938V33.143L25.9281 33.0916C27.1282 32.9787 28.1255 32.6088 28.8313 31.9911C29.5479 31.3638 29.9281 30.5108 29.9281 29.525C29.9281 28.6454 29.6121 27.9221 28.9558 27.361C28.3263 26.8228 27.4145 26.4601 26.2659 26.1941Z" stroke="white" stroke-opacity="0.35"/>
<path d="M9.17848 40.8215C13.3746 45.0176 19.0658 47.375 25 47.375C30.9342 47.375 36.6254 45.0176 40.8215 40.8215C45.0176 36.6254 47.375 30.9342 47.375 25C47.375 19.0658 45.0176 13.3746 40.8215 9.17849C36.6254 4.98236 30.9342 2.625 25 2.625C19.0658 2.625 13.3746 4.98236 9.17848 9.17848C4.98236 13.3746 2.625 19.0658 2.625 25C2.625 30.9342 4.98236 36.6254 9.17848 40.8215ZM42.3241 42.3241C37.7295 46.9188 31.4978 49.5 25 49.5C18.5022 49.5 12.2705 46.9188 7.67588 42.3241C3.08124 37.7295 0.5 31.4978 0.5 25C0.5 18.5022 3.08124 12.2705 7.67588 7.67588C12.2705 3.08124 18.5022 0.5 25 0.5C31.4978 0.5 37.7295 3.08124 42.3241 7.67588C46.9188 12.2705 49.5 18.5022 49.5 25C49.5 31.4978 46.9188 37.7295 42.3241 42.3241Z" stroke="white" stroke-opacity="0.35"/>
<path d="M12.493 37.507C15.8101 40.824 20.309 42.6875 25 42.6875C29.691 42.6875 34.1899 40.824 37.507 37.507C40.824 34.1899 42.6875 29.691 42.6875 25C42.6875 20.309 40.824 15.8101 37.507 12.493C34.1899 9.176 29.691 7.3125 25 7.3125C20.309 7.3125 15.8101 9.176 12.493 12.493C9.176 15.8101 7.3125 20.309 7.3125 25C7.3125 29.691 9.176 34.1899 12.493 37.507ZM31.984 41.8608C29.7698 42.7779 27.3966 43.25 25 43.25C20.1598 43.25 15.5178 41.3272 12.0953 37.9047C8.67276 34.4822 6.75 29.8402 6.75 25C6.75 20.1598 8.67276 15.5178 12.0953 12.0953C15.5178 8.67276 20.1598 6.75 25 6.75C27.3966 6.75 29.7698 7.22205 31.984 8.1392C34.1982 9.05635 36.21 10.4006 37.9047 12.0953C39.5994 13.79 40.9437 15.8018 41.8608 18.016C42.778 20.2302 43.25 22.6034 43.25 25C43.25 27.3966 42.778 29.7698 41.8608 31.984C40.9437 34.1982 39.5994 36.21 37.9047 37.9047C36.21 39.5994 34.1982 40.9436 31.984 41.8608Z" stroke="white" stroke-opacity="0.35"/>
</g>
<defs>
<clipPath id="clip0_5_89">
<rect width="50" height="50" fill="white"/>
</clipPath>
</defs>
</svg>
