<svg width="50" height="50" viewBox="0 0 50 50" fill="none" xmlns="http://www.w3.org/2000/svg">
<path d="M14.7778 34.7222V35.2222H15.2778H22.8346L24.6123 37H13V25.3876L14.7778 27.1654V34.7222Z" stroke="white" stroke-opacity="0.35"/>
<path d="M48.0746 45.1984L48.0785 45.2023C48.2038 45.3266 48.2893 45.4855 48.3241 45.6586C48.3588 45.8317 48.3412 46.0112 48.2735 46.1743C48.2058 46.3373 48.091 46.4765 47.9439 46.5741C47.7968 46.6717 47.6239 46.7233 47.4474 46.7223H47.4445H4.16668C3.93093 46.7223 3.70484 46.6286 3.53814 46.4619C3.37145 46.2952 3.27779 46.0691 3.27779 45.8334V2.77783H3.2778L3.27779 2.77492C3.27676 2.59836 3.32833 2.4255 3.42594 2.27837C3.52354 2.13124 3.66274 2.01651 3.8258 1.94881C3.98886 1.88111 4.16839 1.8635 4.3415 1.89823C4.51461 1.93295 4.67346 2.01845 4.79779 2.14381L4.79778 2.14381L4.80012 2.14614L27.1945 24.4301V26.9366L5.90812 5.77049L5.05557 4.92276V6.12505V13.8889V14.3889H5.55557H7.83335V15.6112H5.55557H5.05557V16.1112V25V25.5H5.55557H7.83335V26.7223H5.55557H5.05557V27.2223V36.4584V36.9584H5.55557H7.83335V38.1806H5.55557H5.05557V38.6806V44.4445V44.9445H5.55557H44.4445H44.9445V44.4445V42.0246L48.0746 45.1984L48.0746 45.1984ZM2.77779 2.77783V45.8334C2.77779 46.2017 2.92412 46.555 3.18459 46.8155C3.44506 47.0759 3.79833 47.2223 4.16668 47.2223H47.4445L2.77779 2.77783Z" stroke="white" stroke-opacity="0.35"/>
<path d="M36.0317 5.31948L36.0347 5.31943C36.4399 5.31379 36.8393 5.41636 37.1917 5.61656C37.5423 5.81577 37.8337 6.10445 38.0361 6.45309L41.1667 12.2105V38.8889C41.1667 39.493 40.9267 40.0724 40.4995 40.4996C40.0723 40.9267 39.493 41.1667 38.8889 41.1667H33.3333C32.7292 41.1667 32.1499 40.9267 31.7227 40.4996C31.2955 40.0724 31.0555 39.493 31.0555 38.8889V12.234L34.0264 6.55113L34.0264 6.55113L34.0273 6.54947C34.2179 6.1815 34.5053 5.87251 34.8585 5.65577C35.2117 5.43903 35.6173 5.32276 36.0317 5.31948ZM32.8887 12.549L32.8333 12.6567V12.7778V33.3334V33.8334H33.3333H38.8889H39.3889V33.3334V12.7917V12.6643L39.3279 12.5524L36.4668 7.30244L36.0151 6.47358L35.5832 7.31292L32.8887 12.549ZM33.3333 35.0973H32.8333V35.5973V38.9861V39.4861H33.3333H38.8889H39.3889V38.9861V35.5973V35.0973H38.8889H33.3333Z" stroke="white" stroke-opacity="0.35"/>
</svg>
