<svg width="50" height="50" viewBox="0 0 50 50" fill="none" xmlns="http://www.w3.org/2000/svg">
<path d="M25.6745 41.3586L25.6746 41.3587C26.1406 41.4848 26.5719 41.5948 26.9682 41.6886L27.5834 41.8342V41.2021V34.875H30.7292C38.197 34.875 44.25 28.822 44.25 21.3542C44.25 13.8864 38.197 7.83333 30.7292 7.83333H19.2709C11.803 7.83333 5.75002 13.8864 5.75002 21.3542C5.75002 29.8696 11.3792 35.0444 17.3982 38.1789C20.3928 39.739 23.403 40.7432 25.6745 41.3586ZM28.6667 36.4583V43.1579C28.3155 43.0935 27.814 42.9946 27.1939 42.854C24.2165 42.1784 18.5581 40.5543 13.6554 37.2072C8.76375 33.8678 4.66669 28.8479 4.66669 21.3542C4.66669 13.2886 11.2053 6.75 19.2709 6.75H30.7292C38.7947 6.75 45.3334 13.2886 45.3334 21.3542C45.3334 29.4197 38.7947 35.9583 30.7292 35.9583H29.1667H28.6667V36.4583Z" stroke="white" stroke-opacity="0.35"/>
<path d="M26.8562 20.0188L27.2011 19.6739L26.8562 20.0188C27.3485 20.5111 27.625 21.1788 27.625 21.875C27.625 22.5712 27.3485 23.2389 26.8562 23.7312C26.3639 24.2234 25.6962 24.5 25 24.5C24.3038 24.5 23.6361 24.2234 23.1439 23.7312C22.6516 23.2389 22.375 22.5712 22.375 21.875C22.375 21.1788 22.6516 20.5111 23.1439 20.0188C23.6361 19.5266 24.3038 19.25 25 19.25C25.6962 19.25 26.3639 19.5266 26.8562 20.0188ZM25 23.4167C25.4089 23.4167 25.801 23.2542 26.0901 22.9651C26.3793 22.676 26.5417 22.2839 26.5417 21.875C26.5417 21.4661 26.3793 21.074 26.0901 20.7849C25.801 20.4958 25.4089 20.3333 25 20.3333C24.5911 20.3333 24.199 20.4958 23.9099 20.7849C23.6208 21.074 23.4584 21.4661 23.4584 21.875C23.4584 22.2839 23.6208 22.676 23.9099 22.9651C24.199 23.2542 24.5911 23.4167 25 23.4167ZM33.3334 23.4167C33.7422 23.4167 34.1344 23.2542 34.4235 22.9651C34.7126 22.676 34.875 22.2839 34.875 21.875C34.875 21.4661 34.7126 21.074 34.4235 20.7849C34.1344 20.4958 33.7422 20.3333 33.3334 20.3333C32.9245 20.3333 32.5324 20.4958 32.2432 20.7849C31.9541 21.074 31.7917 21.4661 31.7917 21.875C31.7917 22.2839 31.9541 22.676 32.2432 22.9651C32.5324 23.2542 32.9245 23.4167 33.3334 23.4167ZM35.1895 23.7312C34.6972 24.2234 34.0295 24.5 33.3334 24.5C32.6372 24.5 31.9695 24.2234 31.4772 23.7312C30.9849 23.2389 30.7084 22.5712 30.7084 21.875C30.7084 21.1788 30.9849 20.5111 31.4772 20.0188C31.9695 19.5266 32.6372 19.25 33.3334 19.25C34.0295 19.25 34.6972 19.5266 35.1895 20.0188C35.6818 20.5111 35.9584 21.1788 35.9584 21.875C35.9584 22.5712 35.6818 23.2389 35.1895 23.7312ZM16.6667 23.4167C17.0756 23.4167 17.4677 23.2542 17.7568 22.9651C18.0459 22.676 18.2084 22.2839 18.2084 21.875C18.2084 21.4661 18.0459 21.074 17.7568 20.7849C17.4677 20.4958 17.0756 20.3333 16.6667 20.3333C16.2578 20.3333 15.8657 20.4958 15.5766 20.7849C15.2874 21.074 15.125 21.4661 15.125 21.875C15.125 22.2839 15.2874 22.676 15.5766 22.9651C15.8657 23.2542 16.2578 23.4167 16.6667 23.4167ZM18.5228 23.7312C18.0306 24.2234 17.3629 24.5 16.6667 24.5C15.9705 24.5 15.3028 24.2234 14.8105 23.7312C14.3182 23.2389 14.0417 22.5712 14.0417 21.875C14.0417 21.1788 14.3182 20.5111 14.8105 20.0188C15.3028 19.5266 15.9705 19.25 16.6667 19.25C17.3629 19.25 18.0306 19.5266 18.5228 20.0188C19.0151 20.5111 19.2917 21.1788 19.2917 21.875C19.2917 22.5712 19.0151 23.2389 18.5228 23.7312Z" stroke="white" stroke-opacity="0.35"/>
</svg>
